HIERARCHY
ROOT hip
{
	OFFSET 0.000000 0.000000 0.000000 
	CHANNELS 6 Xposition Yposition Zposition Xrotation Zrotation Yrotation
	JOINT abdomen
	{
		OFFSET 0.000000 3.402643 0.000000 
		CHANNELS 3 Xrotation Zrotation Yrotation
		JOINT chest
		{
			OFFSET 0.000000 8.438565 -0.680529 
			CHANNELS 3 Xrotation Zrotation Yrotation
			JOINT neck
			{
				OFFSET 0.000000 10.207942 -0.272212 
				CHANNELS 3 Xrotation Zrotation Yrotation
				JOINT head
				{
					OFFSET 0.000000 3.130431 0.000000 
					CHANNELS 3 Xrotation Zrotation Yrotation
					End Site
					{
						OFFSET 0.000000 3.130435 0.000000 
					}
				}
			}
			JOINT lCollar
			{
				OFFSET 3.470700 6.669187 -0.816635 
				CHANNELS 3 Yrotation Zrotation Xrotation
				JOINT lShldr
				{
					OFFSET 3.198488 0.000000 0.000000 
					CHANNELS 3 Zrotation Yrotation Xrotation
					JOINT lForeArm
					{
						OFFSET 10.139888 0.000000 0.000000 
						CHANNELS 3 Yrotation Zrotation Xrotation
						JOINT lHand
						{
							OFFSET 8.370511 0.000000 0.000000 
							CHANNELS 3 Zrotation Yrotation Xrotation
							End Site
							{
								OFFSET 4.083176 0.000000 0.000000 
							}
						}
					}
				}
			}
			JOINT rCollar
			{
				OFFSET -3.470700 6.669187 -0.816635 
				CHANNELS 3 Yrotation Zrotation Xrotation
				JOINT rShldr
				{
					OFFSET -3.198488 0.000000 0.000000 
					CHANNELS 3 Zrotation Yrotation Xrotation
					JOINT rForeArm
					{
						OFFSET -10.139888 0.000000 0.000000 
						CHANNELS 3 Yrotation Zrotation Xrotation
						JOINT rHand
						{
							OFFSET -8.370511 0.000000 0.000000 
							CHANNELS 3 Zrotation Yrotation Xrotation
							End Site
							{
								OFFSET -4.083176 0.000000 0.000000 
							}
						}
					}
				}
			}
		}
	}
	JOINT lThigh
	{
		OFFSET 5.308129 -1.633274 1.361059 
		CHANNELS 3 Xrotation Zrotation Yrotation
		JOINT lShin
		{
			OFFSET -2.041588 -20.007561 0.000000 
			CHANNELS 3 Xrotation Zrotation Yrotation
			JOINT lFoot
			{
				OFFSET 0.000000 -19.190928 -1.224953 
				CHANNELS 3 Xrotation Yrotation Zrotation
				End Site
				{
					OFFSET 0.000000 -2.449906 4.627600 
				}
			}
		}
	}
	JOINT rThigh
	{
		OFFSET -5.308129 -1.633274 1.361059 
		CHANNELS 3 Xrotation Zrotation Yrotation
		JOINT rShin
		{
			OFFSET 2.041588 -20.007561 0.000000 
			CHANNELS 3 Xrotation Zrotation Yrotation
			JOINT rFoot
			{
				OFFSET 0.000000 -19.190928 -1.224953 
				CHANNELS 3 Xrotation Yrotation Zrotation
				End Site
				{
					OFFSET 0.000000 -2.449906 4.627600 
				}
			}
		}
	}
}
MOTION
Frames: 19
Frame Time: 0.016667
3.352678 46.531738 25.518009 -7.631905 2.187057 -1.152995 38.637089 11.067429 9.423564 -2.343080 2.994611 10.576599 -14.355440 -7.998252 1.516081 4.766712 -5.518395 -8.281671 0.952002 -11.715366 -0.620482 -45.378017 -9.621976 5.236159 -38.926903 -5.000000 13.225438 -28.665033 -5.792227 29.313185 4.690020 13.520117 -0.701113 48.906254 13.532894 13.254662 18.324135 -5.000000 -45.000000 -2.460441 -10.495479 -40.158222 -33.306236 4.873116 -12.823787 43.530945 -9.999741 -11.211026 -1.737082 -2.277713 -3.213993 34.044720 -15.546504 -25.213438 29.094467 -2.563079 -1.747890 -20.492903 -11.249751 8.452295 
3.488818 46.677048 25.846752 -7.645233 2.333678 -0.928158 38.976189 11.293390 10.138303 -2.217923 2.681007 11.444027 -14.678546 -9.080707 1.805774 4.570862 -5.949304 -9.711963 1.299487 -12.076253 -0.639081 -45.501949 -10.694000 6.005781 -40.174828 -5.000000 12.386993 -29.345078 -5.629119 28.833729 6.382306 13.195336 -0.712807 47.361526 20.152431 18.027113 19.226679 -5.000000 -45.000000 3.526884 -9.276630 -42.635864 -32.746380 4.550920 -12.583879 43.409286 -9.993045 -11.259829 -1.869878 -2.249889 -2.639854 34.398731 -15.644480 -25.700394 28.717680 -2.621953 -1.777889 -18.816259 -10.717055 8.401875 
3.595763 46.800823 26.107185 -7.450666 2.519367 -0.654523 39.339958 11.450762 10.757448 -2.102659 2.368490 12.184863 -15.277921 -10.049230 2.127725 4.072997 -6.396747 -10.919419 1.598704 -12.378614 -0.656738 -45.388351 -11.599050 6.603409 -41.779102 -5.000000 11.597822 -29.919418 -5.453002 28.484924 7.664287 12.452453 -0.681690 45.691334 27.204874 21.857079 20.732624 -5.000000 -45.000000 9.649819 -7.786121 -45.000000 -32.446651 4.170335 -12.555282 43.154419 -9.999526 -11.293654 -1.954785 -2.123130 -2.160931 34.525452 -15.751394 -26.008863 28.359964 -2.665309 -1.764933 -17.397648 -10.280904 8.395144 
3.677788 46.912643 26.347895 -7.181349 2.705045 -0.283348 39.649967 11.581953 11.329619 -2.012156 2.066424 12.857206 -15.932878 -10.929022 2.448203 3.509298 -6.799167 -12.138177 1.849590 -12.632210 -0.669818 -45.228432 -12.471644 7.160904 -43.433308 -5.000000 10.810774 -30.357517 -5.265940 28.228035 8.726834 11.457208 -0.628148 44.499626 34.289284 25.151104 22.299538 -5.000000 -45.000000 15.255764 -5.814596 -45.000000 -32.275291 3.799396 -12.582714 42.892834 -9.991631 -11.292165 -1.969471 -2.064501 -1.706786 34.634102 -15.732680 -26.254562 27.937347 -2.672681 -1.763341 -16.005402 -9.924977 8.353401 
3.660151 46.976650 26.509747 -6.598641 2.861240 0.450121 39.768890 11.506948 11.696692 -1.993803 1.804339 13.285735 -16.799679 -11.416493 2.748516 2.685510 -7.021938 -13.413016 1.868650 -12.671221 -0.671830 -44.863701 -13.250005 7.569467 -45.249039 -5.000000 9.984873 -30.214516 -5.010679 28.261557 8.929654 9.488682 -0.513139 43.639515 41.210522 26.146145 23.916817 -5.000000 -45.000000 19.365866 -3.748513 -45.000000 -32.555706 3.476621 -12.824151 42.666862 -9.999502 -11.360053 -2.024458 -2.131668 -1.377613 34.647209 -15.302865 -26.394581 27.275486 -2.594530 -1.707953 -14.865250 -9.927460 8.247064 
3.642512 47.040649 26.671600 -6.021900 3.007172 1.183599 39.909534 11.422473 12.081883 -1.979839 1.533012 13.704663 -17.673212 -11.902043 3.058440 1.867619 -7.257477 -14.691554 1.899793 -12.700159 -0.663816 -44.501278 -14.034003 7.966380 -47.063759 -5.000000 9.174378 -30.070765 -4.755795 28.297056 9.135573 7.511992 -0.388682 42.874035 48.142185 27.138546 25.581919 -5.000000 -45.000000 23.366425 -1.489917 -45.000000 -32.860245 3.164157 -13.054576 42.452648 -9.999498 -11.416790 -2.042713 -2.259616 -1.040214 34.650852 -14.863299 -26.541256 26.620974 -2.535980 -1.637349 -13.666219 -9.978990 8.120865 
3.537313 47.093792 26.812677 -5.459890 3.074329 1.985329 39.890877 11.043519 12.266965 -1.973374 1.300857 14.006353 -18.467297 -11.970741 3.252973 1.129327 -7.170504 -16.126043 1.911294 -12.553879 -0.656267 -44.229572 -14.934871 8.423036 -48.472355 -5.000000 8.303450 -29.686197 -4.602343 28.250540 8.779860 5.476711 -0.262822 41.956146 53.949215 26.373997 26.641361 -5.000000 -45.000000 25.494816 0.251520 -45.000000 -33.218811 2.978679 -13.271881 42.268589 -9.999664 -11.477740 -1.988279 -2.405972 -0.781833 34.751209 -14.219302 -26.702801 25.803455 -2.409089 -1.498138 -12.764730 -10.093719 7.987892 
3.410225 47.144222 26.948561 -4.886106 3.121258 2.807081 39.848255 10.570309 12.415561 -1.978508 1.068988 14.279129 -19.233255 -11.925179 3.416489 0.412110 -7.012557 -17.607624 1.913687 -12.349086 -0.645691 -43.980350 -15.857935 8.881647 -49.759502 -5.000000 7.448524 -29.239672 -4.470340 28.178001 8.283406 3.420165 -0.145774 40.659889 59.458729 24.846682 27.547558 -5.000000 -45.000000 27.123034 1.920116 -45.000000 -33.592903 2.822341 -13.484408 42.074764 -9.999515 -11.527577 -1.948189 -2.562862 -0.528157 34.860199 -13.505846 -26.866266 24.946960 -2.284112 -1.371178 -11.885473 -10.337368 7.835037 
3.257928 47.205479 27.078995 -4.400356 3.089904 3.511284 39.764004 10.045527 12.470760 -1.963110 0.856746 14.493284 -19.875389 -11.790917 3.516212 -0.233244 -6.782167 -18.976717 1.935568 -12.144295 -0.633053 -43.792328 -16.704233 9.285245 -50.829166 -5.000000 6.600474 -28.881527 -4.334617 27.957510 7.763031 1.711879 -0.066659 38.640663 64.149277 22.496918 28.426285 -5.000000 -45.000000 27.902891 3.070131 -45.000000 -33.902264 2.754178 -13.711659 41.942726 -9.999815 -11.537566 -1.845257 -2.672531 -0.348408 34.964085 -12.803031 -26.982475 24.169737 -2.139290 -1.221099 -11.119907 -10.516075 7.777491 
3.067820 47.283005 27.201250 -4.031168 2.941944 4.029153 39.651329 9.430676 12.405560 -1.934826 0.673688 14.619837 -20.296865 -11.494037 3.517647 -0.759583 -6.429453 -20.172245 2.006453 -11.919997 -0.621488 -43.687363 -17.404156 9.593352 -51.562572 -5.000000 5.754819 -28.656893 -4.175645 27.511099 7.195833 0.541374 -0.006146 35.712070 67.555702 19.071520 29.269253 -5.000000 -45.000000 27.493000 3.345281 -45.000000 -34.102959 2.832996 -13.942780 41.762245 -9.993057 -11.520145 -1.701446 -2.637133 -0.215614 35.033798 -12.129081 -26.955040 23.453257 -1.992497 -1.120310 -10.493449 -10.650231 7.787576 
2.877715 47.360519 27.323507 -3.663868 2.803665 4.546555 39.539429 8.810788 12.348454 -1.897273 0.490714 14.736715 -20.729763 -11.195613 3.528648 -1.295042 -6.087255 -21.377033 2.077287 -11.695702 -0.609915 -43.571465 -18.120472 9.896601 -52.271957 -5.000000 4.935839 -28.443453 -4.014163 27.057066 6.619898 -0.641139 0.035474 31.677820 70.882187 14.559677 30.089285 -5.000000 -45.000000 27.086222 3.611542 -45.000000 -34.316692 2.911721 -14.212295 41.620991 -9.999354 -11.463001 -1.540617 -2.591514 -0.067547 35.096035 -11.445549 -26.922668 22.777147 -1.832083 -1.027654 -9.879036 -10.853202 7.754599 
2.667730 47.467297 27.400469 -3.452041 2.472373 4.633435 39.420444 8.298994 12.087333 -1.807220 0.394612 14.609614 -20.932009 -10.962763 3.501195 -1.755353 -5.768086 -21.845495 2.195430 -11.607933 -0.605383 -43.366043 -18.245781 9.793770 -52.631744 -5.000000 4.341399 -28.215837 -4.071517 26.037636 6.171079 -1.138522 0.061181 28.575970 72.507774 11.143270 31.684343 -5.000000 -43.318432 25.774534 2.814886 -45.000000 -34.426746 3.233164 -14.646965 41.454594 -9.993324 -11.302837 -1.389741 -2.312308 -0.153820 34.925003 -10.977617 -26.693935 22.499571 -1.715205 -0.954316 -9.341972 -10.683369 7.896397 
2.457745 47.574078 27.477428 -3.242023 2.131426 4.720427 39.296009 7.807609 11.826455 -1.705489 0.308088 14.472831 -21.124582 -10.729910 3.473777 -2.217012 -5.459533 -22.313683 2.323330 -11.520164 -0.600851 -43.160145 -18.370623 9.690258 -52.983719 -5.000000 3.756194 -27.998682 -4.115161 25.004263 5.712717 -1.635906 0.086883 24.820955 74.069847 7.067058 33.282276 -5.000000 -41.214291 24.465561 2.013428 -45.000000 -34.545898 3.545447 -15.089360 41.285858 -9.999614 -11.146735 -1.221532 -2.068238 -0.275047 34.757664 -10.517968 -26.450052 22.212576 -1.581959 -0.869371 -8.780682 -10.494121 8.045773 
2.252836 47.687531 27.515854 -3.084040 1.752340 4.523845 39.156620 7.374419 11.474655 -1.619894 0.240798 14.257934 -21.220743 -10.546784 3.444219 -2.586519 -5.168978 -22.342579 2.411848 -11.461652 -0.597828 -42.890095 -18.186541 9.372142 -53.081100 -5.000000 3.402677 -27.680441 -4.410350 23.725853 5.439347 -1.880647 0.089763 22.705603 74.858864 4.739487 35.241364 -5.000000 -38.856647 23.512671 1.309930 -45.000000 -34.620049 3.965839 -15.504301 41.140324 -9.993179 -10.969473 -1.126851 -1.575239 -0.395066 34.442764 -10.264008 -26.041601 22.162546 -1.441375 -0.835943 -8.321517 -10.203897 8.233777 
2.051308 47.805424 27.528585 -2.960249 1.334414 4.132011 39.024685 6.984158 11.060294 -1.530881 0.192736 13.984454 -21.247444 -10.405291 3.399799 -2.912139 -4.888407 -22.086664 2.490493 -11.412890 -0.593376 -42.601372 -17.777714 8.934367 -52.995445 -5.000000 3.198472 -27.277210 -4.867953 22.245565 5.273438 -1.948856 0.093619 21.880112 75.172455 3.746657 37.454575 -5.000000 -36.334782 22.812017 0.662498 -45.000000 -34.679039 4.503231 -15.951037 40.972649 -9.999504 -10.774753 -1.072487 -1.178488 -0.690117 33.997829 -10.147357 -25.523369 22.343868 -1.324237 -0.771280 -7.943897 -9.754074 8.401999 
1.853075 47.917892 27.530096 -2.860502 0.925830 3.672499 38.877033 6.624322 10.628386 -1.462656 0.134983 13.710982 -21.206526 -10.273427 3.358634 -3.167796 -4.600472 -21.743826 2.528112 -11.364560 -0.602353 -42.296700 -17.326550 8.481736 -52.814297 -5.000000 3.063881 -26.920147 -5.312053 20.762196 5.224975 -1.967494 0.104349 21.683754 75.231506 3.399767 39.713360 -5.000000 -33.841797 22.273031 0.098080 -45.000000 -34.729523 5.078995 -16.331327 40.836460 -9.999606 -10.581880 -1.038581 -0.714328 -0.991007 33.535969 -10.078521 -24.984116 22.534243 -1.230165 -0.739125 -7.553148 -9.313598 8.605212 
1.668031 48.008640 27.486683 -2.863761 0.526659 2.920068 38.696030 6.316633 10.185348 -1.481993 0.077175 13.408221 -20.927237 -10.226355 3.279970 -3.161103 -4.292779 -21.087872 2.450511 -11.315788 -0.599835 -41.950237 -16.690163 7.963034 -52.225113 -5.000000 3.218708 -26.750042 -5.767978 19.311333 5.585943 -1.752937 0.093228 23.766623 74.299881 5.395823 42.184109 -5.000000 -31.279463 22.417286 -0.200160 -45.000000 -34.705254 5.790983 -16.536119 40.762844 -9.992615 -10.376987 -0.900427 -0.396001 -1.505106 33.024586 -10.234531 -24.267635 23.017620 -1.103239 -0.662988 -7.530244 -8.797586 8.831018 
1.482988 48.099384 27.443268 -2.856875 0.117103 2.177750 38.529522 6.002655 9.752871 -1.500932 0.019303 13.115238 -20.648085 -10.179258 3.203038 -3.157546 -3.981922 -20.422810 2.372804 -11.276767 -0.597821 -41.612034 -16.049248 7.470949 -51.636139 -5.000000 3.369186 -26.573729 -6.223353 17.848364 5.956732 -1.548132 0.082348 25.615187 73.349030 7.154730 44.642101 -5.000000 -28.779406 22.572283 -0.488372 -45.000000 -34.659908 6.484964 -16.727161 40.677456 -9.992881 -10.180984 -0.748686 0.079079 -1.895976 32.472191 -10.381127 -23.535666 23.462498 -1.005576 -0.660408 -7.418655 -8.313242 9.057988 
1.304773 48.139095 27.362087 -2.955277 -0.253834 1.367174 38.300671 5.720366 9.321231 -1.557097 -0.028970 12.832031 -20.235437 -10.220443 3.129752 -2.937632 -3.631842 -19.719477 2.255511 -11.286497 -0.598325 -41.239273 -15.577829 7.121839 -50.794067 -5.000000 3.701871 -26.946663 -6.220959 17.218218 6.503282 -1.294564 0.069245 27.852863 71.520790 9.244843 47.378407 -5.000000 -25.920534 22.653999 -0.963834 -45.000000 -34.620716 7.246707 -16.837830 40.731510 -9.999821 -10.025971 -0.525031 0.194399 -2.561852 32.046589 -10.605757 -22.927124 24.041847 -0.933315 -0.638329 -7.761635 -7.721373 9.357259 
